:FULLY-SPECIFIED
:FORCE-ALL-JOINTS-BE-3DOF
:DEGREES
2956
root -5.94803 13.1466 -28.7548 1246.65 -66.5939 -163.608
lfemur -68.8925 43.434 -7.53914
ltibia 79.4542 0 0
lfoot -5.97192 -3.57799 0
ltoes -36.1269 0 0
rfemur -35.1719 -18.672 22.4878
rtibia 92.1209 0 0
rfoot -40.7254 -31.2554 0
rtoes -12.8157 0 0
lowerback 16.6684 5.17698 0.88857
upperback -4.312 7.36456 1.53169
thorax -14.3282 3.39128 -0.891983
lowerneck -3.11887 9.97367 1.81826
upperneck 7.75444 13.1368 0.92771
head 3.05815 6.58725 0.45655
lclavicle 2.10725e-014 -5.57758e-015 0
lhumerus 5.58511 15.5673 81.3522
lradius 90.4248 0 0
lwrist -17.7655 0 0
lhand -39.713 390.559 0
lfingers 7.12502 0 0
lthumb -12.6915 -659.838 0
rclavicle 2.10725e-014 -5.57758e-015 0
rhumerus -54.9843 51.5946 -106.425
rradius 111.503 0 0
rwrist -79.0865 0 0
rhand 4.14452 -384.676 0
rfingers 7.12502 0 0
rthumb 29.5568 307.62 0
2957
root -5.93886 13.1468 -28.7559 1246.64 -66.7199 -163.545
lfemur -68.8977 43.0892 -7.5528
ltibia 79.2527 0 0
lfoot -5.72242 -3.44867 0
ltoes -36.0276 0 0
rfemur -35.3126 -18.5997 22.5572
rtibia 92.1412 0 0
rfoot -40.6726 -31.3885 0
rtoes -12.6488 0 0
lowerback 16.7093 5.15895 0.836156
upperback -4.28218 7.32791 1.52535
thorax -14.3244 3.37855 -0.862423
lowerneck -3.11945 9.95422 1.76982
upperneck 7.60703 13.1217 0.852391
head 3.01092 6.57671 0.435417
lclavicle 1.21894e-014 -6.87065e-015 0
lhumerus 5.62717 15.6642 81.1804
lradius 90.3391 0 0
lwrist -17.5447 0 0
lhand -39.6053 390.548 0
lfingers 7.12502 0 0
lthumb -12.5877 -659.843 0
rclavicle 1.21894e-014 -6.87065e-015 0
rhumerus -54.32 51.3888 -105.81
rradius 111.305 0 0
rwrist -78.7727 0 0
rhand 3.76869 -384.663 0
rfingers 7.12502 0 0
rthumb 29.1978 307.571 0
2958
root -5.92969 13.1469 -28.7569 1246.51 -66.8849 -163.349
lfemur -68.8778 42.6809 -7.5433
ltibia 78.9685 0 0
lfoot -5.44554 -3.30345 0
ltoes -35.9259 0 0
rfemur -35.4468 -18.5066 22.6505
rtibia 92.1257 0 0
rfoot -40.6089 -31.5266 0
rtoes -12.4676 0 0
lowerback 16.7469 5.14363 0.788309
upperback -4.2504 7.29531 1.51568
thorax -14.3151 3.36732 -0.839684
lowerneck -3.11458 9.91776 1.71174
upperneck 7.45107 13.0837 0.784635
head 2.95953 6.55486 0.417359
lclavicle 3.92199e-015 -7.98278e-015 0
lhumerus 5.68054 15.7428 81.014
lradius 90.2494 0 0
lwrist -17.2969 0 0
lhand -39.4827 390.541 0
lfingers 7.12502 0 0
lthumb -12.4694 -659.844 0
rclavicle 3.92199e-015 -7.98278e-015 0
rhumerus -53.5649 51.1042 -105.146
rradius 111.09 0 0
rwrist -78.459 0 0
rhand 3.3723 -384.663 0
rfingers 7.12502 0 0
rthumb 28.819 307.51 0
2959
root -5.92052 13.1471 -28.758 1246.24 -67.0927 -163.006
lfemur -68.8301 42.2032 -7.50787
ltibia 78.593 0 0
lfoot -5.13943 -3.14088 0
ltoes -35.8226 0 0
rfemur -35.5733 -18.3905 22.7703
rtibia 92.0701 0 0
rfoot -40.5335 -31.6701 0
rtoes -12.2711 0 0
lowerback 16.7808 5.13141 0.745856
upperback -4.21656 7.2674 1.5023
thorax -14.2999 3.3578 -0.824729
lowerneck -3.10363 9.86238 1.64307
upperneck 7.28621 13.0201 0.725697
head 2.90369 6.52043 0.402849
lclavicle -3.59646e-015 -8.87983e-015 0
lhumerus 5.74636 15.8006 80.8543
lradius 90.1555 0 0
lwrist -17.0199 0 0
lhand -39.344 390.537 0
lfingers 7.12502 0 0
lthumb -12.3356 -659.841 0
rclavicle -3.59646e-015 -8.87983e-015 0
rhumerus -52.7113 50.7324 -104.429
rradius 110.857 0 0
rwrist -78.1469 0 0
rhand 2.95463 -384.676 0
rfingers 7.12502 0 0
rthumb 28.4195 307.434 0
2960
root -5.91135 13.1472 -28.759 1245.81 -67.3473 -162.502
lfemur -68.7517 41.6502 -7.44376
ltibia 78.1176 0 0
lfoot -4.8022 -2.9595 0
ltoes -35.7186 0 0
rfemur -35.6908 -18.2494 22.919
rtibia 91.9702 0 0
rfoot -40.4452 -31.8189 0
rtoes -12.0586 0 0
lowerback 16.8102 5.12268 0.709624
upperback -4.18055 7.24481 1.48484
thorax -14.278 3.35024 -0.818523
lowerneck -3.08601 9.78619 1.56287
upperneck 7.11215 12.9281 0.676832
head 2.84314 6.47214 0.392359
lclavicle -1.02327e-014 -9.52767e-015 0
lhumerus 5.82576 15.8351 80.7025
lradius 90.0572 0 0
lwrist -16.7117 0 0
lhand -39.1878 390.538 0
lfingers 7.12502 0 0
lthumb -12.1849 -659.833 0
rclavicle -1.02327e-014 -9.52767e-015 0
rhumerus -51.7516 50.265 -103.656
rradius 110.605 0 0
rwrist -77.8377 0 0
rhand 2.51495 -384.704 0
rfingers 7.12502 0 0
rthumb 27.9987 307.344 0
2961
root -5.90218 13.1474 -28.7601 1245.22 -67.6526 -161.82
lfemur -68.6398 41.016 -7.34818
ltibia 77.5335 0 0
lfoot -4.43198 -2.75788 0
ltoes -35.6147 0 0
rfemur -35.798 -18.081 23.0992
rtibia 91.8219 0 0
rfoot -40.3431 -31.9731 0
rtoes -11.8293 0 0
lowerback 16.8346 5.11782 0.680441
upperback -4.14228 7.22816 1.46293
thorax -14.2488 3.34484 -0.82203
lowerneck -3.0611 9.68729 1.47017
upperneck 6.92856 12.8054 0.639294
head 2.77761 6.40872 0.386361
lclavicle -1.58536e-014 -9.89218e-015 0
lhumerus 5.91988 15.8439 80.5602
lradius 89.9542 0 0
lwrist -16.37 0 0
lhand -39.0128 390.543 0
lfingers 7.12502 0 0
lthumb -12.0162 -659.82 0
rclavicle -1.58536e-014 -9.89218e-015 0
rhumerus -50.6783 49.6936 -102.824
rradius 110.333 0 0
rwrist -77.5329 0 0
rhand 2.05254 -384.75 0
rfingers 7.12502 0 0
rthumb 27.5558 307.236 0
2962
root -5.89301 13.1475 -28.7611 1244.44 -68.0127 -160.945
lfemur -68.4916 40.2949 -7.21837
ltibia 76.8321 0 0
lfoot -4.0269 -2.53456 0
ltoes -35.512 0 0
rfemur -35.8937 -17.8833 23.3134
rtibia 91.621 0 0
rfoot -40.2261 -32.1328 0
rtoes -11.5822 0 0
lowerback 16.8535 5.11722 0.659134
upperback -4.10163 7.21809 1.43621
thorax -14.2116 3.34184 -0.836214
lowerneck -3.02829 9.56378 1.36404
upperneck 6.7351 12.6491 0.614339
head 2.70682 6.32889 0.385329
lclavicle -2.03257e-014 -9.93923e-015 0
lhumerus 6.02987 15.8244 80.4285
lradius 89.8465 0 0
lwrist -15.9928 0 0
lhand -38.8179 390.553 0
lfingers 7.12502 0 0
lthumb -11.8281 -659.801 0
rclavicle -2.03257e-014 -9.93923e-015 0
rhumerus -49.4836 49.0098 -101.93
rradius 110.04 0 0
rwrist -77.2338 0 0
rhand 1.56667 -384.813 0
rfingers 7.12502 0 0
rthumb 27.0901 307.111 0
2963
root -5.82981 13.1977 -28.8211 1243.55 -68.4876 -159.943
lfemur -68.2925 39.4629 -7.02616
ltibia 75.9537 0 0
lfoot -3.54658 -2.27841 0
ltoes -35.3959 0 0
rfemur -35.9809 -17.6595 23.571
rtibia 91.367 0 0
rfoot -40.1021 -32.3162 0
rtoes -11.2915 0 0
lowerback 16.8684 5.12663 0.643915
upperback -4.05831 7.2216 1.40194
thorax -14.1667 3.34455 -0.864901
lowerneck -2.98982 9.41959 1.2462
upperneck 6.52781 12.4651 0.593878
head 2.62862 6.23552 0.38548
lclavicle -2.3933e-014 -9.63812e-015 0
lhumerus 6.14145 15.8049 80.3001
lradius 89.7467 0 0
lwrist -15.5654 0 0
lhand -38.6015 390.566 0
lfingers 7.12502 0 0
lthumb -11.6193 -659.778 0
rclavicle -2.3933e-014 -9.63812e-015 0
rhumerus -48.1528 48.1766 -100.945
rradius 109.713 0 0
rwrist -76.9476 0 0
rhand 1.03495 -384.895 0
rfingers 7.12502 0 0
rthumb 26.5801 306.965 0
2964
root -5.7666 13.2478 -28.8811 1242.62 -69.1208 -158.884
lfemur -68.0343 38.508 -6.75234
ltibia 74.8608 0 0
lfoot -2.96095 -1.98227 0
ltoes -35.2539 0 0
rfemur -36.0637 -17.415 23.8765
rtibia 91.0647 0 0
rfoot -39.9787 -32.5376 0
rtoes -10.9374 0 0
lowerback 16.8813 5.15018 0.632359
upperback -4.01219 7.24352 1.35838
thorax -14.1149 3.35534 -0.909994
lowerneck -2.94823 9.26014 1.11917
upperneck 6.30391 12.261 0.569937
head 2.54159 6.13244 0.383222
lclavicle -2.70625e-014 -9.00525e-015 0
lhumerus 6.24183 15.8109 80.1676
lradius 89.6653 0 0
lwrist -15.0787 0 0
lhand -38.3639 390.58 0
lfingers 7.12502 0 0
lthumb -11.3901 -659.754 0
rclavicle -2.70625e-014 -9.00525e-015 0
rhumerus -46.6832 47.1745 -99.848
rradius 109.342 0 0
rwrist -76.6783 0 0
rhand 0.440323 -384.996 0
rfingers 7.12502 0 0
rthumb 26.0095 306.796 0
2965
root -5.7034 13.298 -28.9411 1241.63 -69.891 -157.76
lfemur -67.7235 37.442 -6.40757
ltibia 73.5783 0 0
lfoot -2.28363 -1.65063 0
ltoes -35.0896 0 0
rfemur -36.1421 -17.1503 24.2249
rtibia 90.7174 0 0
rfoot -39.8542 -32.7917 0
rtoes -10.5285 0 0
lowerback 16.8921 5.18584 0.624341
upperback -3.96344 7.28126 1.30664
thorax -14.0569 3.37305 -0.969574
lowerneck -2.90331 9.08578 0.983187
upperneck 6.06483 12.0373 0.543938
head 2.44662 6.0198 0.379311
lclavicle -2.97357e-014 -8.07714e-015 0
lhumerus 6.3344 15.8358 80.0322
lradius 89.5986 0 0
lwrist -14.5387 0 0
lhand -38.1067 390.594 0
lfingers 7.12502 0 0
lthumb -11.1419 -659.728 0
rclavicle -2.97357e-014 -8.07714e-015 0
rhumerus -45.0855 46.0213 -98.6515
rradius 108.932 0 0
rwrist -76.4226 0 0
rhand -0.209898 -385.112 0
rfingers 7.12502 0 0
rthumb 25.3853 306.606 0
2966
root -5.6402 13.3481 -29.0011 1240.59 -70.7771 -156.565
lfemur -67.3669 36.2767 -6.00251
ltibia 72.1311 0 0
lfoot -1.52824 -1.28799 0
ltoes -34.9065 0 0
rfemur -36.2163 -16.8663 24.6116
rtibia 90.3288 0 0
rfoot -39.7272 -33.0728 0
rtoes -10.073 0 0
lowerback 16.901 5.23158 0.619735
upperback -3.91225 7.3322 1.24784
thorax -13.9929 3.3965 -1.04172
lowerneck -2.8549 8.89685 0.838495
upperneck 5.81204 11.7943 0.517304
head 2.34455 5.89776 0.374504
lclavicle -3.19739e-014 -6.89029e-015 0
lhumerus 6.4225 15.8733 79.8949
lradius 89.5428 0 0
lwrist -13.9515 0 0
lhand -37.8313 390.61 0
lfingers 7.12502 0 0
lthumb -10.8761 -659.699 0
rclavicle -3.19739e-014 -6.89029e-015 0
rhumerus -43.37 44.7347 -97.3664
rradius 108.489 0 0
rwrist -76.1774 0 0
rhand -0.908417 -385.244 0
rfingers 7.12502 0 0
rthumb 24.7145 306.399 0
2967
root -5.577 13.3983 -29.0611 1239.48 -71.7578 -155.29
lfemur -66.9711 35.0241 -5.54784
ltibia 70.5439 0 0
lfoot -0.708373 -0.898858 0
ltoes -34.7084 0 0
rfemur -36.2863 -16.5636 25.0317
rtibia 89.9022 0 0
rfoot -39.5961 -33.3754 0
rtoes -9.57945 0 0
lowerback 16.9079 5.28536 0.618417
upperback -3.85879 7.39376 1.18309
thorax -13.9235 3.42453 -1.12452
lowerneck -2.8028 8.69369 0.685333
upperneck 5.54699 11.5324 0.491456
head 2.23625 5.76648 0.369558
lclavicle -3.37986e-014 -5.48121e-015 0
lhumerus 6.50953 15.9168 79.7568
lradius 89.4944 0 0
lwrist -13.3234 0 0
lhand -37.5391 390.628 0
lfingers 7.12502 0 0
lthumb -10.5943 -659.668 0
rclavicle -3.37986e-014 -5.48121e-015 0
rhumerus -41.5474 43.3327 -96.0038
rradius 108.016 0 0
rwrist -75.9393 0 0
rhand -1.64794 -385.389 0
rfingers 7.12502 0 0
rthumb 24.0042 306.175 0
2968
root -5.51379 13.4484 -29.121 1238.29 -72.8118 -153.928
lfemur -66.5426 33.696 -5.05421
ltibia 68.8418 0 0
lfoot 0.162344 -0.487718 0
ltoes -34.4988 0 0
rfemur -36.3523 -16.243 25.4803
rtibia 89.4411 0 0
rfoot -39.4594 -33.6942 0
rtoes -9.05632 0 0
lowerback 16.9127 5.34516 0.620261
upperback -3.80323 7.46332 1.11351
thorax -13.8492 3.45594 -1.21605
lowerneck -2.74683 8.47664 0.523942
upperneck 5.27113 11.252 0.467818
head 2.12259 5.62613 0.365228
lclavicle -3.52313e-014 -3.88642e-015 0
lhumerus 6.59884 15.9598 79.6193
lradius 89.4496 0 0
lwrist -12.6602 0 0
lhand -37.2317 390.647 0
lfingers 7.12502 0 0
lthumb -10.2977 -659.635 0
rclavicle -3.52313e-014 -3.88642e-015 0
rhumerus -39.6282 41.833 -94.5752
rradius 107.519 0 0
rwrist -75.7052 0 0
rhand -2.42116 -385.547 0
rfingers 7.12502 0 0
rthumb 23.2614 305.936 0
